disruption-vf copy.glyphspackage
{
glyphname = A;
layers = (
{
layerId = m01;
shapes = (
{
closed = 1;
nodes = (
(375,600,l),
(325,800,l),
(255,800,l),
(209,600,l),
(266,600,l),
(291,718,l),
(318,600,l)
);
},
{
closed = 1;
nodes = (
(490,149,l),
(388,550,l),
(331,550,l),
(384,327,l),
(208,327,l),
(255,550,l),
(198,550,l),
(102,148,l),
(165,149,l),
(198,277,l),
(395,277,l),
(426,149,l)
);
},
{
closed = 1;
nodes = (
(96,99,l),
(75,10,l),
(139,0,l),
(160,100,l)
);
},
{
closed = 1;
nodes = (
(438,99,l),
(461,0,l),
(525,10,l),
(502,99,l)
);
}
);
width = 600;
},
{
layerId = m002;
shapes = (
{
closed = 1;
nodes = (
(375,600,l),
(325,800,l),
(255,800,l),
(209,600,l),
(266,600,l),
(291,718,l),
(318,600,l)
);
},
{
closed = 1;
nodes = (
(477,200,l),
(426,399,l),
(369,399,l),
(384,327,l),
(208,327,l),
(221,400,l),
(164,400,l),
(120,199,l),
(183,200,l),
(198,277,l),
(395,277,l),
(413,200,l)
);
},
{
closed = 1;
nodes = (
(96,99,l),
(75,10,l),
(139,0,l),
(160,100,l)
);
},
{
closed = 1;
nodes = (
(438,99,l),
(461,0,l),
(525,10,l),
(502,99,l)
);
}
);
width = 600;
},
{
associatedMasterId = m01;
layerId = "80E592D5-E8B1-4AE3-89B7-FAB5141FC174";
name = "9. Mar 24, 16:36";
shapes = (
{
closed = 1;
nodes = (
(384,327,l),
(208,327,l),
(251,531,l),
(291,718,l),
(328,562,l)
);
},
{
closed = 1;
nodes = (
(461,0,l),
(525,10,l),
(507,80,l),
(380,583,l),
(325,800,l),
(255,800,l),
(188,505,l),
(120,209,l),
(75,10,l),
(139,0,l),
(179,190,l),
(198,277,l),
(395,277,l),
(436,104,l)
);
}
);
visible = 1;
width = 600;
}
);
unicode = 65;
}
{
glyphname = C;
layers = (
{
layerId = m01;
shapes = (
{
closed = 1;
nodes = (
(201,399,l),
(201,401,o),
(201,404,o),
(201,406,cs),
(201,682,o),
(222,760,o),
(307,760,cs),
(371,760,o),
(391,721,o),
(404,624,c),
(459,636,l),
(438,774,o),
(388,810,o),
(307,810,cs),
(187,810,o),
(141,719,o),
(141,406,cs),
(141,404,o),
(141,401,o),
(141,399,c)
);
},
{
closed = 1;
nodes = (
(141,399,l),
(142,83,o),
(188,-10,o),
(307,-10,cs),
(388,-10,o),
(442,25,o),
(460,187,c),
(405,199,l),
(392,78,o),
(366,40,o),
(307,40,cs),
(223,40,o),
(201,121,o),
(201,399,c)
);
}
);
width = 600;
},
{
layerId = m002;
shapes = (
{
closed = 1;
nodes = (
(201,489,l),
(201,491,o),
(201,487,o),
(201,489,cs),
(204,670,o),
(222,760,o),
(307,760,cs),
(371,760,o),
(391,721,o),
(404,624,c),
(459,636,l),
(438,774,o),
(388,810,o),
(307,810,cs),
(187,810,o),
(146,709,o),
(143,489,cs),
(143,487,o),
(143,491,o),
(143,489,c)
);
},
{
closed = 1;
nodes = (
(143,289,l),
(157,85,o),
(188,-10,o),
(307,-10,cs),
(388,-10,o),
(442,25,o),
(460,187,c),
(405,199,l),
(392,78,o),
(366,40,o),
(307,40,cs),
(223,40,o),
(210,129,o),
(202,289,c)
);
}
);
width = 600;
},
{
associatedMasterId = m002;
layerId = "3A39F4BB-D4B1-46E9-AFE4-6983E4ED6C1D";
name = "9. Mar 24, 17:46";
shapes = (
{
closed = 1;
nodes = (
(405,199,l),
(392,78,o),
(366,40,o),
(307,40,cs),
(222,40,o),
(201,122,o),
(201,406,cs),
(201,682,o),
(222,760,o),
(307,760,cs),
(371,760,o),
(391,721,o),
(404,624,c),
(459,636,l),
(438,774,o),
(388,810,o),
(307,810,cs),
(187,810,o),
(141,719,o),
(141,406,cs),
(141,84,o),
(187,-10,o),
(307,-10,cs),
(388,-10,o),
(442,25,o),
(460,187,c)
);
}
);
width = 600;
}
);
unicode = 67;
}
{
glyphname = E;
layers = (
{
layerId = m01;
shapes = (
{
closed = 1;
nodes = (
(205,549,l),
(205,750,l),
(445,750,l),
(445,800,l),
(145,800,l),
(145,549,l)
);
},
{
closed = 1;
nodes = (
(145,199,l),
(145,0,l),
(175,0,l),
(175,-1,l),
(455,-1,l),
(455,49,l),
(205,49,l),
(205,199,l)
);
},
{
closed = 1;
nodes = (
(145,499,l),
(145,249,l),
(205,249,l),
(205,389,l),
(405,389,l),
(405,439,l),
(205,439,l),
(205,499,l)
);
}
);
width = 600;
},
{
layerId = m002;
shapes = (
{
closed = 1;
nodes = (
(205,699,l),
(205,750,l),
(445,750,l),
(445,800,l),
(145,800,l),
(145,699,l)
);
},
{
closed = 1;
nodes = (
(145,199,l),
(145,0,l),
(175,0,l),
(175,-1,l),
(455,-1,l),
(455,49,l),
(205,49,l),
(205,199,l)
);
},
{
closed = 1;
nodes = (
(145,499,l),
(145,349,l),
(205,349,l),
(205,389,l),
(405,389,l),
(405,439,l),
(205,439,l),
(205,499,l)
);
}
);
width = 600;
},
{
associatedMasterId = m002;
layerId = "55246897-B02E-42A7-A350-F884E3938EDC";
name = "9. Mar 24, 17:12";
shapes = (
{
closed = 1;
nodes = (
(145,0,l),
(175,0,l),
(175,-1,l),
(455,-1,l),
(455,49,l),
(205,49,l),
(205,389,l),
(405,389,l),
(405,439,l),
(205,439,l),
(205,750,l),
(445,750,l),
(445,800,l),
(145,800,l)
);
}
);
width = 600;
}
);
unicode = 69;
}
{
glyphname = F;
layers = (
{
layerId = m01;
shapes = (
{
closed = 1;
nodes = (
(200,602,l),
(200,750,l),
(460,750,l),
(460,800,l),
(140,800,l),
(140,602,l)
);
},
{
closed = 1;
nodes = (
(140,350,l),
(140,0,l),
(200,0,l),
(200,350,l)
);
},
{
closed = 1;
nodes = (
(140,552,l),
(140,400,l),
(200,400,l),
(200,459,l),
(410,459,l),
(410,509,l),
(200,509,l),
(200,552,l)
);
}
);
width = 600;
},
{
layerId = m002;
shapes = (
{
closed = 1;
nodes = (
(200,652,l),
(200,750,l),
(460,750,l),
(460,800,l),
(140,800,l),
(140,652,l)
);
},
{
closed = 1;
nodes = (
(140,200,l),
(140,0,l),
(200,0,l),
(200,200,l)
);
},
{
closed = 1;
nodes = (
(140,552,l),
(140,400,l),
(200,400,l),
(200,459,l),
(410,459,l),
(410,509,l),
(200,509,l),
(200,552,l)
);
}
);
width = 600;
},
{
associatedMasterId = m01;
layerId = "D0F0B5E6-2833-4720-ACC1-DEF3DBA66D4B";
name = "9. Mar 24, 17:14";
shapes = (
{
closed = 1;
nodes = (
(140,0,l),
(200,0,l),
(200,459,l),
(410,459,l),
(410,509,l),
(200,509,l),
(200,750,l),
(460,750,l),
(460,800,l),
(140,800,l)
);
}
);
width = 600;
}
);
unicode = 70;
}
{
glyphname = H;
layers = (
{
layerId = m01;
shapes = (
{
closed = 1;
nodes = (
(204,550,l),
(204,800,l),
(144,800,l),
(144,550,l)
);
},
{
closed = 1;
nodes = (
(456,550,l),
(456,800,l),
(396,800,l),
(396,550,l)
);
},
{
closed = 1;
nodes = (
(456,348,l),
(456,500,l),
(396,500,l),
(396,467,l),
(204,467,l),
(204,500,l),
(144,500,l),
(144,350,l),
(204,350,l),
(204,417,l),
(396,417,l),
(396,348,l)
);
},
{
closed = 1;
nodes = (
(144,300,l),
(144,0,l),
(204,0,l),
(204,300,l)
);
},
{
closed = 1;
nodes = (
(396,300,l),
(396,0,l),
(456,0,l),
(456,300,l)
);
}
);
width = 600;
},
{
layerId = m002;
shapes = (
{
closed = 1;
nodes = (
(204,650,l),
(204,800,l),
(144,800,l),
(144,650,l)
);
},
{
closed = 1;
nodes = (
(456,650,l),
(456,800,l),
(396,800,l),
(396,650,l)
);
},
{
closed = 1;
nodes = (
(456,348,l),
(456,500,l),
(396,500,l),
(396,467,l),
(204,467,l),
(204,500,l),
(144,500,l),
(144,350,l),
(204,350,l),
(204,417,l),
(396,417,l),
(396,348,l)
);
},
{
closed = 1;
nodes = (
(144,150,l),
(144,0,l),
(204,0,l),
(204,150,l)
);
},
{
closed = 1;
nodes = (
(396,150,l),
(396,0,l),
(456,0,l),
(456,150,l)
);
}
);
width = 600;
},
{
associatedMasterId = m002;
layerId = "833C6A93-AFDE-447D-98AE-2BE7E298A484";
name = "9. Mar 24, 17:17";
shapes = (
{
closed = 1;
nodes = (
(144,0,l),
(204,0,l),
(204,417,l),
(396,417,l),
(396,0,l),
(456,0,l),
(456,800,l),
(396,800,l),
(396,467,l),
(204,467,l),
(204,800,l),
(144,800,l)
);
}
);
width = 600;
}
);
unicode = 72;
}
{
glyphname = I;
layers = (
{
layerId = m01;
shapes = (
{
closed = 1;
nodes = (
(321,700,l),
(321,750,l),
(450,750,l),
(450,800,l),
(150,800,l),
(150,750,l),
(261,750,l),
(261,700,l)
);
},
{
closed = 1;
nodes = (
(321,300,l),
(321,650,l),
(261,650,l),
(261,300,l)
);
},
{
closed = 1;
nodes = (
(261,249,l),
(261,50,l),
(150,50,l),
(150,0,l),
(450,0,l),
(450,50,l),
(321,50,l),
(321,249,l)
);
}
);
width = 600;
},
{
layerId = m002;
shapes = (
{
closed = 1;
nodes = (
(321,700,l),
(321,750,l),
(450,750,l),
(450,800,l),
(150,800,l),
(150,750,l),
(261,750,l),
(261,700,l)
);
},
{
closed = 1;
nodes = (
(321,300,l),
(321,500,l),
(261,500,l),
(261,300,l)
);
},
{
closed = 1;
nodes = (
(261,149,l),
(261,50,l),
(150,50,l),
(150,0,l),
(450,0,l),
(450,50,l),
(321,50,l),
(321,149,l)
);
}
);
width = 600;
},
{
associatedMasterId = m01;
layerId = "4C23B8EF-977D-4E2B-8064-394A508133AB";
name = "9. Mar 24, 17:20";
shapes = (
{
closed = 1;
nodes = (
(150,757,l),
(261,757,l),
(261,47,l),
(150,47,l),
(150,-3,l),
(450,-3,l),
(450,47,l),
(321,47,l),
(321,757,l),
(450,757,l),
(450,807,l),
(150,807,l)
);
}
);
width = 600;
}
);
unicode = 73;
}
{
glyphname = K;
layers = (
{
layerId = m01;
shapes = (
{
closed = 1;
nodes = (
(200,600,l),
(200,800,l),
(140,800,l),
(140,600,l)
);
},
{
closed = 1;
nodes = (
(371,600,l),
(468,762,l),
(413,790,l),
(306,600,l)
);
},
{
closed = 1;
nodes = (
(302,400,l),
(279,444,l),
(343,550,l),
(278,550,l),
(231,467,l),
(200,467,l),
(200,550,l),
(140,550,l),
(140,400,l),
(200,400,l),
(200,417,l),
(234,417,l),
(242,400,l)
);
},
{
closed = 1;
nodes = (
(140,350,l),
(140,0,l),
(200,0,l),
(200,350,l)
);
},
{
closed = 1;
nodes = (
(265,350,l),
(433,0,l),
(493,28,l),
(328,350,l)
);
}
);
width = 600;
},
{
associatedMasterId = m01;
layerId = "A5312C8F-5F73-4B19-BD93-633223DBE74D";
name = "8. Aug 23, 19:25";
shapes = (
{
closed = 1;
nodes = (
(140,0,l),
(200,0,l),
(200,800,l),
(140,800,l)
);
},
{
closed = 1;
nodes = (
(277,423,l),
(473,772,l),
(413,800,l),
(233,452,l)
);
},
{
closed = 1;
nodes = (
(140,417,l),
(270,417,l),
(270,467,l),
(140,467,l)
);
},
{
closed = 1;
nodes = (
(443,0,l),
(503,28,l),
(277,468,l),
(233,439,l)
);
}
);
width = 600;
},
{
associatedMasterId = m01;
layerId = "2F2ED2D2-6400-4F4C-BA01-6F9518759A75";
name = "8. Aug 23, 19:26";
shapes = (
{
closed = 1;
nodes = (
(140,0,l),
(200,0,l),
(200,800,l),
(140,800,l)
);
},
{
closed = 1;
nodes = (
(267,423,l),
(468,762,l),
(413,790,l),
(223,452,l)
);
},
{
closed = 1;
nodes = (
(140,417,l),
(260,417,l),
(260,467,l),
(140,467,l)
);
},
{
closed = 1;
nodes = (
(433,0,l),
(493,28,l),
(267,468,l),
(223,439,l)
);
}
);
width = 600;
},
{
layerId = m002;
shapes = (
{
closed = 1;
nodes = (
(200,650,l),
(200,800,l),
(140,800,l),
(140,650,l)
);
},
{
closed = 1;
nodes = (
(401,650,l),
(468,762,l),
(413,790,l),
(334,650,l)
);
},
{
closed = 1;
nodes = (
(302,400,l),
(279,444,l),
(313,500,l),
(250,500,l),
(231,467,l),
(200,467,l),
(200,500,l),
(140,500,l),
(140,400,l),
(200,400,l),
(200,417,l),
(234,417,l),
(242,400,l)
);
},
{
closed = 1;
nodes = (
(140,200,l),
(140,0,l),
(200,0,l),
(200,200,l)
);
},
{
closed = 1;
nodes = (
(337,200,l),
(433,0,l),
(493,28,l),
(405,200,l)
);
}
);
width = 600;
},
{
associatedMasterId = m002;
layerId = "8FF2270A-4E06-476E-B1DA-CFA1DE358EBB";
name = "8. Aug 23, 19:25";
shapes = (
{
closed = 1;
nodes = (
(140,0,l),
(200,0,l),
(200,800,l),
(140,800,l)
);
},
{
closed = 1;
nodes = (
(277,423,l),
(473,772,l),
(413,800,l),
(233,452,l)
);
},
{
closed = 1;
nodes = (
(140,417,l),
(270,417,l),
(270,467,l),
(140,467,l)
);
},
{
closed = 1;
nodes = (
(443,0,l),
(503,28,l),
(277,468,l),
(233,439,l)
);
}
);
width = 600;
},
{
associatedMasterId = m002;
layerId = "E156FEF5-37CF-40B3-A037-81BF4F666B97";
name = "8. Aug 23, 19:26";
shapes = (
{
closed = 1;
nodes = (
(140,0,l),
(200,0,l),
(200,800,l),
(140,800,l)
);
},
{
closed = 1;
nodes = (
(267,423,l),
(468,762,l),
(413,790,l),
(223,452,l)
);
},
{
closed = 1;
nodes = (
(140,417,l),
(260,417,l),
(260,467,l),
(140,467,l)
);
},
{
closed = 1;
nodes = (
(433,0,l),
(493,28,l),
(267,468,l),
(223,439,l)
);
}
);
width = 600;
},
{
associatedMasterId = m01;
layerId = "DA655FCA-7F0F-46A0-93D3-BCF5B0E3BE3D";
name = "9. Mar 24, 17:51";
shapes = (
{
closed = 1;
nodes = (
(140,0,l),
(200,0,l),
(200,417,l),
(234,417,l),
(433,0,l),
(493,28,l),
(279,444,l),
(468,762,l),
(413,790,l),
(231,467,l),
(200,467,l),
(200,800,l),
(140,800,l)
);
}
);
visible = 1;
width = 600;
}
);
unicode = 75;
}
{
glyphname = L;
layers = (
{
layerId = m01;
shapes = (
{
closed = 1;
nodes = (
(200,600,l),
(200,800,l),
(140,800,l),
(140,600,l)
);
},
{
closed = 1;
nodes = (
(140,100,l),
(140,0,l),
(460,0,l),
(460,50,l),
(200,50,l),
(200,100,l)
);
},
{
closed = 1;
nodes = (
(140,550,l),
(140,150,l),
(200,150,l),
(200,550,l)
);
}
);
width = 600;
},
{
associatedMasterId = m01;
layerId = "8336CE71-5F6C-4447-BD78-46428336A016";
name = "8. Aug 23, 19:52";
shapes = (
{
closed = 1;
nodes = (
(140,0,l),
(200,0,l),
(200,800,l),
(140,800,l)
);
},
{
closed = 1;
nodes = (
(140,-3,l),
(460,-3,l),
(460,47,l),
(140,47,l)
);
}
);
width = 600;
},
{
layerId = m002;
shapes = (
{
closed = 1;
nodes = (
(200,650,l),
(200,800,l),
(140,800,l),
(140,650,l)
);
},
{
closed = 1;
nodes = (
(140,100,l),
(140,0,l),
(460,0,l),
(460,50,l),
(200,50,l),
(200,100,l)
);
},
{
closed = 1;
nodes = (
(140,500,l),
(140,300,l),
(200,300,l),
(200,500,l)
);
}
);
width = 600;
},
{
associatedMasterId = m002;
layerId = "4286BBF4-E502-464C-8793-468B64FD7EDF";
name = "8. Aug 23, 19:52";
shapes = (
{
closed = 1;
nodes = (
(140,0,l),
(200,0,l),
(200,800,l),
(140,800,l)
);
},
{
closed = 1;
nodes = (
(140,-3,l),
(460,-3,l),
(460,47,l),
(140,47,l)
);
}
);
width = 600;
},
{
associatedMasterId = m01;
layerId = "814FC23B-5959-4959-BED7-B8AB596BEDBC";
name = "9. Mar 24, 17:23";
shapes = (
{
closed = 1;
nodes = (
(140,-3,l),
(460,-3,l),
(460,47,l),
(200,47,l),
(200,800,l),
(140,800,l)
);
}
);
width = 600;
}
);
unicode = 76;
}
{
glyphname = M;
layers = (
{
layerId = m01;
shapes = (
{
closed = 1;
nodes = (
(207,750,l),
(192,800,l),
(122,800,l),
(122,750,l)
);
},
{
closed = 1;
nodes = (
(478,750,l),
(478,800,l),
(408,800,l),
(394,750,l)
);
},
{
closed = 1;
nodes = (
(478,400,l),
(478,700,l),
(379,700,l),
(306,450,l),
(303,450,l),
(223,700,l),
(122,700,l),
(122,400,l),
(182,400,l),
(182,678,l),
(268,400,l),
(338,400,l),
(418,678,l),
(418,400,l)
);
},
{
closed = 1;
nodes = (
(122,350,l),
(122,0,l),
(182,0,l),
(182,350,l)
);
},
{
closed = 1;
nodes = (
(284,350,l),
(303,289,l),
(306,289,l),
(324,350,l)
);
},
{
closed = 1;
nodes = (
(418,350,l),
(418,0,l),
(478,0,l),
(478,350,l)
);
}
);
width = 600;
},
{
layerId = m002;
shapes = (
{
closed = 1;
nodes = (
(207,750,l),
(192,800,l),
(122,800,l),
(122,750,l)
);
},
{
closed = 1;
nodes = (
(478,750,l),
(478,800,l),
(408,800,l),
(394,750,l)
);
},
{
closed = 1;
nodes = (
(478,400,l),
(478,600,l),
(372,600,l),
(306,450,l),
(300,450,l),
(232,600,l),
(122,600,l),
(122,400,l),
(182,400,l),
(184,601,l),
(268,400,l),
(338,400,l),
(418,600,l),
(418,400,l)
);
},
{
closed = 1;
nodes = (
(122,200,l),
(122,0,l),
(182,0,l),
(182,200,l)
);
},
{
closed = 1;
nodes = (
(284,289,l),
(303,289,l),
(306,289,l),
(324,289,l)
);
},
{
closed = 1;
nodes = (
(418,200,l),
(418,0,l),
(478,0,l),
(478,200,l)
);
}
);
width = 600;
},
{
associatedMasterId = m01;
layerId = "DF41B53A-AD45-4285-8472-23D4EE16CB08";
name = "12. Mar 24, 11:11";
shapes = (
{
closed = 1;
nodes = (
(122,0,l),
(182,0,l),
(182,678,l),
(303,289,l),
(306,289,l),
(418,678,l),
(418,0,l),
(478,0,l),
(478,800,l),
(408,800,l),
(306,450,l),
(303,450,l),
(192,800,l),
(122,800,l)
);
}
);
width = 600;
}
);
unicode = 77;
}
{
glyphname = N;
layers = (
{
layerId = m01;
shapes = (
{
closed = 1;
nodes = (
(217,750,l),
(202,800,l),
(142,800,l),
(142,750,l)
);
},
{
closed = 1;
nodes = (
(458,750,l),
(458,800,l),
(398,800,l),
(398,750,l)
);
},
{
closed = 1;
nodes = (
(458,100,l),
(458,700,l),
(398,700,l),
(398,158,l),
(232,700,l),
(142,700,l),
(142,100,l),
(202,100,l),
(202,646,l),
(368,100,l)
);
},
{
closed = 1;
nodes = (
(142,50,l),
(142,0,l),
(202,0,l),
(202,50,l)
);
},
{
closed = 1;
nodes = (
(383,50,l),
(398,0,l),
(458,0,l),
(458,50,l)
);
}
);
width = 600;
},
{
layerId = m002;
shapes = (
{
closed = 1;
nodes = (
(217,750,l),
(202,800,l),
(142,800,l),
(142,750,l)
);
},
{
closed = 1;
nodes = (
(458,750,l),
(458,800,l),
(398,800,l),
(398,750,l)
);
},
{
closed = 1;
nodes = (
(458,200,l),
(458,550,l),
(398,550,l),
(398,200,l),
(249,550,l),
(142,550,l),
(142,200,l),
(202,200,l),
(202,550,l),
(349,200,l)
);
},
{
closed = 1;
nodes = (
(142,50,l),
(142,0,l),
(202,0,l),
(202,50,l)
);
},
{
closed = 1;
nodes = (
(384,50,l),
(398,0,l),
(458,0,l),
(458,50,l)
);
}
);
width = 600;
},
{
associatedMasterId = m01;
layerId = "A7846E36-2CEA-4FD1-AD3B-8F7EC1B048C7";
name = "12. Mar 24, 11:22";
shapes = (
{
closed = 1;
nodes = (
(142,0,l),
(202,0,l),
(202,800,l),
(142,800,l)
);
},
{
closed = 1;
nodes = (
(398,0,l),
(458,0,l),
(458,800,l),
(398,800,l)
);
},
{
closed = 1;
nodes = (
(202,800,l),
(180,719,l),
(398,0,l),
(437,30,l)
);
}
);
width = 600;
},
{
associatedMasterId = m01;
layerId = "626235CE-E823-453A-9FEE-D146C8E3AA55";
name = "12. Mar 24, 11:22";
shapes = (
{
closed = 1;
nodes = (
(142,0,l),
(202,0,l),
(202,646,l),
(398,0,l),
(458,0,l),
(458,800,l),
(398,800,l),
(398,158,l),
(202,800,l),
(142,800,l)
);
}
);
width = 600;
}
);
unicode = 78;
}
{
glyphname = V;
layers = (
{
layerId = m01;
shapes = (
{
closed = 1;
nodes = (
(214,500,l),
(159,800,l),
(99,790,l),
(157,500,l)
);
},
{
closed = 1;
nodes = (
(435,500,l),
(501,790,l),
(441,800,l),
(379,500,l)
);
},
{
closed = 1;
nodes = (
(306,150,l),
(292,82,l),
(280,150,l),
(228,150,l),
(258,0,l),
(323,0,l),
(357,150,l)
);
},
{
closed = 1;
nodes = (
(167,450,l),
(218,200,l),
(270,200,l),
(224,450,l)
);
},
{
closed = 1;
nodes = (
(369,450,l),
(317,200,l),
(368,200,l),
(425,450,l)
);
}
);
width = 600;
},
{
associatedMasterId = m01;
layerId = "2AE8915B-CF85-46A0-A513-7C365E5B6658";
name = "8. Aug 23, 16:57";
shapes = (
{
closed = 1;
nodes = (
(272,0,l),
(327,0,l),
(514,800,l),
(466,800,l)
);
},
{
closed = 1;
nodes = (
(104,800,l),
(272,0,l),
(327,0,l),
(152,800,l)
);
}
);
width = 600;
},
{
layerId = m002;
shapes = (
{
closed = 1;
nodes = (
(196,600,l),
(159,800,l),
(99,790,l),
(137,600,l)
);
},
{
closed = 1;
nodes = (
(458,600,l),
(501,790,l),
(441,800,l),
(400,600,l)
);
},
{
closed = 1;
nodes = (
(306,150,l),
(292,82,l),
(280,150,l),
(228,150,l),
(258,0,l),
(323,0,l),
(357,150,l)
);
},
{
closed = 1;
nodes = (
(167,450,l),
(208,250,l),
(261,250,l),
(224,450,l)
);
},
{
closed = 1;
nodes = (
(369,450,l),
(327,250,l),
(379,250,l),
(425,450,l)
);
}
);
width = 600;
},
{
associatedMasterId = m002;
layerId = "AF084E24-ABAA-4AC8-9669-B627828CFD23";
name = "8. Aug 23, 16:57";
shapes = (
{
closed = 1;
nodes = (
(272,0,l),
(327,0,l),
(514,800,l),
(466,800,l)
);
},
{
closed = 1;
nodes = (
(104,800,l),
(272,0,l),
(327,0,l),
(152,800,l)
);
}
);
width = 600;
}
);
unicode = 86;
}
{
color = 1;
glyphname = W;
layers = (
{
layerId = m01;
shapes = (
{
closed = 1;
nodes = (
(181,550,l),
(160,800,l),
(95,790,l),
(122,550,l)
);
},
{
closed = 1;
nodes = (
(178,50,l),
(184,0,l),
(226,0,l),
(234,50,l)
);
},
{
closed = 1;
nodes = (
(362,50,l),
(369,0,l),
(412,0,l),
(418,50,l)
);
},
{
closed = 1;
nodes = (
(335,550,l),
(325,620,l),
(281,620,l),
(270,550,l)
);
},
{
closed = 1;
nodes = (
(477,550,l),
(505,790,l),
(440,800,l),
(420,550,l)
);
},
{
closed = 1;
nodes = (
(416,500,l),
(390,180,l),
(387,180,l),
(342,500,l),
(263,500,l),
(213,182,l),
(210,182,l),
(184,500,l),
(127,500,l),
(173,100,l),
(242,100,l),
(300,469,l),
(305,469,l),
(356,100,l),
(424,100,l),
(471,500,l)
);
}
);
width = 600;
},
{
associatedMasterId = m01;
layerId = "A19F257E-3A2F-4FF5-935C-24BCB0032436";
name = "8. Aug 23, 17:51";
shapes = (
{
closed = 1;
nodes = (
(211,82,l),
(108,800,l),
(48,800,l),
(182,0,l),
(237,0,l),
(325,600,l),
(275,600,l)
);
},
{
closed = 1;
nodes = (
(403,81,l),
(325,599,l),
(275,599,l),
(374,0,l),
(429,0,l),
(552,799,l),
(492,799,l)
);
}
);
width = 600;
},
{
layerId = m002;
shapes = (
{
closed = 1;
nodes = (
(172,650,l),
(160,800,l),
(95,790,l),
(111,650,l)
);
},
{
closed = 1;
nodes = (
(178,50,l),
(184,0,l),
(226,0,l),
(234,50,l)
);
},
{
closed = 1;
nodes = (
(362,50,l),
(369,0,l),
(412,0,l),
(418,50,l)
);
},
{
closed = 1;
nodes = (
(335,620,l),
(325,620,l),
(281,620,l),
(270,620,l)
);
},
{
closed = 1;
nodes = (
(487,650,l),
(505,790,l),
(440,800,l),
(428,650,l)
);
},
{
closed = 1;
nodes = (
(416,500,l),
(390,180,l),
(387,180,l),
(342,500,l),
(263,500,l),
(213,182,l),
(210,182,l),
(184,500,l),
(127,500,l),
(167,150,l),
(250,150,l),
(300,469,l),
(305,469,l),
(349,150,l),
(430,150,l),
(471,500,l)
);
}
);
width = 600;
},
{
associatedMasterId = m002;
layerId = "5D41823E-A881-48BC-8C4D-40E9AF546B8D";
name = "8. Aug 23, 17:51";
shapes = (
{
closed = 1;
nodes = (
(211,82,l),
(108,800,l),
(48,800,l),
(182,0,l),
(237,0,l),
(325,600,l),
(275,600,l)
);
},
{
closed = 1;
nodes = (
(403,81,l),
(325,599,l),
(275,599,l),
(374,0,l),
(429,0,l),
(552,799,l),
(492,799,l)
);
}
);
width = 600;
},
{
associatedMasterId = m002;
layerId = "B219C336-A49C-4CF6-8163-FF4F6F1FE2DD";
name = "9. Mar 24, 20:00";
shapes = (
{
closed = 1;
nodes = (
(213,182,l),
(210,182,l),
(160,800,l),
(95,790,l),
(184,0,l),
(226,0,l),
(300,469,l),
(305,469,l),
(369,0,l),
(412,0,l),
(505,790,l),
(440,800,l),
(390,180,l),
(387,180,l),
(325,620,l),
(281,620,l)
);
}
);
width = 600;
}
);
unicode = 87;
}
{
glyphname = X;
layers = (
{
layerId = m01;
shapes = (
{
closed = 1;
nodes = (
(324,399,l),
(465,777,l),
(413,800,l),
(294,486,l),
(175,800,l),
(122,777,l),
(263,399,l)
);
},
{
closed = 1;
nodes = (
(421,150,l),
(345,350,l),
(243,350,l),
(167,150,l),
(228,150,l),
(294,324,l),
(360,150,l)
);
},
{
closed = 1;
nodes = (
(147,99,l),
(119,23,l),
(171,0,l),
(208,99,l)
);
},
{
closed = 1;
nodes = (
(379,99,l),
(416,0,l),
(469,23,l),
(440,99,l)
);
}
);
width = 600;
},
{
associatedMasterId = m01;
layerId = "B68D6EF1-0830-43C4-8AD7-684644A33FA9";
name = "8. Aug 23, 19:29";
shapes = (
{
closed = 1;
nodes = (
(115,23,l),
(171,0,l),
(465,777,l),
(409,800,l)
);
},
{
closed = 1;
nodes = (
(122,777,l),
(416,0,l),
(473,23,l),
(179,800,l)
);
}
);
width = 600;
},
{
layerId = m002;
shapes = (
{
closed = 1;
nodes = (
(380,550,l),
(465,777,l),
(413,800,l),
(294,487,l),
(175,800,l),
(121,777,l),
(207,550,l)
);
},
{
closed = 1;
nodes = (
(383,250,l),
(345,350,l),
(243,350,l),
(205,250,l),
(266,250,l),
(294,324,l),
(322,250,l)
);
},
{
closed = 1;
nodes = (
(147,99,l),
(119,23,l),
(171,0,l),
(208,99,l)
);
},
{
closed = 1;
nodes = (
(379,99,l),
(416,0,l),
(469,23,l),
(440,99,l)
);
}
);
width = 600;
},
{
associatedMasterId = m002;
layerId = "F955AA3D-488E-4A83-9DE5-B0C67E29D4BD";
name = "8. Aug 23, 19:29";
shapes = (
{
closed = 1;
nodes = (
(115,23,l),
(171,0,l),
(465,777,l),
(409,800,l)
);
},
{
closed = 1;
nodes = (
(122,777,l),
(416,0,l),
(473,23,l),
(179,800,l)
);
}
);
width = 600;
},
{
associatedMasterId = m01;
layerId = "CFE20A1F-D539-4DE2-9927-CAEFAA9D6B1D";
name = "12. Mar 24, 11:32";
shapes = (
{
closed = 1;
nodes = (
(119,23,l),
(171,0,l),
(465,777,l),
(413,800,l)
);
},
{
closed = 1;
nodes = (
(122,777,l),
(416,0,l),
(469,23,l),
(175,800,l)
);
}
);
width = 600;
},
{
associatedMasterId = m01;
layerId = "3891452F-8950-462A-ABC3-2B030B0D8552";
name = "12. Mar 24, 11:34";
shapes = (
{
closed = 1;
nodes = (
(294,486,l),
(175,800,l),
(122,777,l),
(263,404,l),
(119,23,l),
(171,0,l),
(294,324,l),
(416,0,l),
(469,23,l),
(324,405,l),
(465,777,l),
(413,800,l)
);
}
);
width = 600;
}
);
unicode = 88;
}
{
glyphname = Y;
layers = (
{
layerId = m01;
shapes = (
{
closed = 1;
nodes = (
(364,450,l),
(508,785,l),
(448,795,l),
(289,427,l),
(146,795,l),
(86,785,l),
(217,450,l)
);
},
{
closed = 1;
nodes = (
(258,50,l),
(258,0,l),
(318,0,l),
(318,50,l)
);
},
{
closed = 1;
nodes = (
(237,400,l),
(258,345,l),
(258,100,l),
(318,100,l),
(318,345,l),
(341,400,l)
);
}
);
width = 600;
},
{
layerId = m002;
shapes = (
{
closed = 1;
nodes = (
(386,500,l),
(508,785,l),
(448,795,l),
(289,427,l),
(146,795,l),
(86,785,l),
(197,500,l)
);
},
{
closed = 1;
nodes = (
(258,50,l),
(258,0,l),
(318,0,l),
(318,50,l)
);
},
{
closed = 1;
nodes = (
(256,350,l),
(258,345,l),
(258,250,l),
(318,250,l),
(318,345,l),
(320,350,l)
);
}
);
width = 600;
},
{
associatedMasterId = m01;
layerId = "399AA7CB-B861-45E2-B0E6-F862B06800E7";
name = "12. Mar 24, 11:42";
shapes = (
{
closed = 1;
nodes = (
(289,427,l),
(146,795,l),
(86,785,l),
(258,345,l),
(318,345,l),
(508,785,l),
(448,795,l)
);
},
{
closed = 1;
nodes = (
(258,0,l),
(318,0,l),
(318,345,l),
(258,345,l)
);
}
);
width = 600;
},
{
associatedMasterId = m002;
layerId = "376E65DB-E2EA-4D5C-A9B2-7508BDEB602C";
name = "12. Mar 24, 11:44";
shapes = (
{
closed = 1;
nodes = (
(289,427,l),
(146,795,l),
(86,785,l),
(258,345,l),
(258,0,l),
(318,0,l),
(318,345,l),
(508,785,l),
(448,795,l)
);
}
);
width = 600;
}
);
unicode = 89;
}
{
glyphname = Z;
layers = (
{
layerId = m01;
shapes = (
{
closed = 1;
nodes = (
(410,650,l),
(450,750,l),
(450,800,l),
(110,800,l),
(100,750,l),
(391,750,l),
(351,650,l)
);
},
{
closed = 1;
nodes = (
(231,200,l),
(390,600,l),
(331,600,l),
(170,200,l)
);
},
{
closed = 1;
nodes = (
(150,150,l),
(110,50,l),
(110,0,l),
(450,0,l),
(460,50,l),
(171,50,l),
(211,150,l)
);
}
);
width = 600;
},
{
layerId = m002;
shapes = (
{
closed = 1;
nodes = (
(410,650,l),
(450,750,l),
(450,800,l),
(110,800,l),
(100,750,l),
(391,750,l),
(351,650,l)
);
},
{
closed = 1;
nodes = (
(271,300,l),
(330,450,l),
(271,450,l),
(210,300,l)
);
},
{
closed = 1;
nodes = (
(150,150,l),
(110,50,l),
(110,0,l),
(450,0,l),
(460,50,l),
(171,50,l),
(211,150,l)
);
}
);
width = 600;
},
{
associatedMasterId = m002;
layerId = "737F5600-66A4-495C-9000-A6A56962C8CD";
name = "9. Mar 24, 20:06";
shapes = (
{
closed = 1;
nodes = (
(110,50,l),
(110,0,l),
(450,0,l),
(460,50,l),
(171,50,l),
(450,750,l),
(450,800,l),
(110,800,l),
(100,750,l),
(391,750,l)
);
}
);
width = 600;
}
);
unicode = 90;
}
{
glyphname = a;
layers = (
{
layerId = m01;
shapes = (
{
closed = 1;
nodes = (
(387,333,l),
(319,600,l),
(266,600,l),
(230,442,l),
(273,412,l),
(293,509,l),
(323,377,l)
);
},
{
closed = 1;
nodes = (
(430,165,l),
(387,333,l),
(323,377,l),
(352,252,l),
(241,252,l),
(273,412,l),
(230,442,l),
(142,56,l),
(207,81,l),
(231,202,l),
(363,202,l),
(376,145,l)
);
},
{
closed = 1;
nodes = (
(142,56,l),
(131,10,l),
(191,0,l),
(207,81,l)
);
},
{
closed = 1;
nodes = (
(376,145,l),
(409,0,l),
(469,10,l),
(430,165,l)
);
}
);
width = 600;
},
{
layerId = m002;
shapes = (
{
closed = 1;
nodes = (
(372,393,l),
(319,600,l),
(266,600,l),
(243,502,l),
(286,472,l),
(293,509,l),
(308,437,l)
);
},
{
closed = 1;
nodes = (
(421,203,l),
(397,293,l),
(333,337,l),
(352,252,l),
(241,252,l),
(265,372,l),
(222,402,l),
(153,106,l),
(218,131,l),
(231,202,l),
(363,202,l),
(367,183,l)
);
},
{
closed = 1;
nodes = (
(136,26,l),
(131,10,l),
(191,0,l),
(201,51,l)
);
},
{
closed = 1;
nodes = (
(386,105,l),
(409,0,l),
(469,10,l),
(440,125,l)
);
}
);
width = 600;
}
);
unicode = 97;
}
{
glyphname = h;
layers = (
{
layerId = m01;
shapes = (
{
closed = 1;
nodes = (
(211,500,l),
(211,600,l),
(151,600,l),
(151,527,l)
);
},
{
closed = 1;
nodes = (
(429,402,l),
(429,600,l),
(369,600,l),
(369,429,l)
);
},
{
closed = 1;
nodes = (
(190,281,l),
(389,281,l),
(389,331,l),
(190,331,l)
);
},
{
closed = 1;
nodes = (
(211,100,l),
(211,500,l),
(151,527,l),
(151,72,l)
);
},
{
closed = 1;
nodes = (
(429,200,l),
(429,402,l),
(369,429,l),
(369,172,l)
);
},
{
closed = 1;
nodes = (
(151,72,l),
(151,0,l),
(211,0,l),
(211,100,l)
);
},
{
closed = 1;
nodes = (
(369,172,l),
(369,0,l),
(429,0,l),
(429,200,l)
);
}
);
width = 600;
},
{
layerId = m002;
shapes = (
{
closed = 1;
nodes = (
(211,560,l),
(211,600,l),
(151,600,l),
(151,587,l)
);
},
{
closed = 1;
nodes = (
(429,462,l),
(429,600,l),
(369,600,l),
(369,489,l)
);
},
{
closed = 1;
nodes = (
(190,281,l),
(389,281,l),
(389,331,l),
(190,331,l)
);
},
{
closed = 1;
nodes = (
(211,150,l),
(211,450,l),
(151,477,l),
(151,122,l)
);
},
{
closed = 1;
nodes = (
(429,250,l),
(429,352,l),
(369,379,l),
(369,222,l)
);
},
{
closed = 1;
nodes = (
(151,22,l),
(151,0,l),
(211,0,l),
(211,50,l)
);
},
{
closed = 1;
nodes = (
(369,122,l),
(369,0,l),
(429,0,l),
(429,150,l)
);
}
);
width = 600;
}
);
unicode = 104;
}
{
glyphname = o;
layers = (
{
layerId = m01;
shapes = (
{
closed = 1;
nodes = (
(386,-10,o),
(430,63,o),
(430,301,cs),
(430,544,o),
(390,610,o),
(300,610,cs),
(208,610,o),
(170,538,o),
(170,301,cs),
(170,57,o),
(206,-10,o),
(296,-10,cs)
);
},
{
closed = 1;
nodes = (
(241,40,o),
(230,85,o),
(230,301,cs),
(230,511,o),
(245,560,o),
(300,560,cs),
(355,560,o),
(370,515,o),
(370,301,cs),
(370,89,o),
(351,40,o),
(296,40,cs)
);
},
{
closed = 1;
nodes = (
(-299,162,l),
(-294,162,l),
(-294,184,l),
(-299,184,l)
);
}
);
width = 600;
},
{
layerId = m002;
shapes = (
{
closed = 1;
nodes = (
(386,-10,o),
(430,63,o),
(430,301,cs),
(430,544,o),
(390,610,o),
(300,610,cs),
(208,610,o),
(170,538,o),
(170,301,cs),
(170,57,o),
(206,-10,o),
(296,-10,cs)
);
},
{
closed = 1;
nodes = (
(241,40,o),
(230,85,o),
(230,301,cs),
(230,511,o),
(245,560,o),
(300,560,cs),
(355,560,o),
(370,515,o),
(370,301,cs),
(370,89,o),
(351,40,o),
(296,40,cs)
);
},
{
closed = 1;
nodes = (
(-299,162,l),
(-294,162,l),
(-294,184,l),
(-299,184,l)
);
}
);
width = 600;
},
{
associatedMasterId = m01;
layerId = "B90CDA9D-82F3-4E8D-AD2A-A27D8CED8832";
name = "6. Mar 24, 14:42";
shapes = (
{
closed = 1;
nodes = (
(386,-10,o),
(430,63,o),
(430,301,cs),
(430,544,o),
(390,610,o),
(300,610,cs),
(208,610,o),
(170,538,o),
(170,301,cs),
(170,57,o),
(206,-10,o),
(296,-10,cs)
);
},
{
closed = 1;
nodes = (
(241,40,o),
(230,85,o),
(230,301,cs),
(230,511,o),
(245,560,o),
(300,560,cs),
(355,560,o),
(370,515,o),
(370,301,cs),
(370,89,o),
(351,40,o),
(296,40,cs)
);
},
{
closed = 1;
nodes = (
(-299,162,l),
(-294,162,l),
(-294,184,l),
(-299,184,l)
);
}
);
width = 600;
}
);
unicode = 111;
}
{
export = 0;
glyphname = E.001;
layers = (
{
layerId = m01;
shapes = (
{
closed = 1;
nodes = (
(205,569,l),
(205,750,l),
(445,750,l),
(445,800,l),
(145,800,l),
(145,549,l)
);
},
{
closed = 1;
nodes = (
(205,231,l),
(205,389,l),
(405,389,l),
(405,439,l),
(205,439,l),
(205,569,l),
(145,549,l),
(145,251,l)
);
},
{
closed = 1;
nodes = (
(145,251,l),
(145,0,l),
(175,0,l),
(175,-1,l),
(455,-1,l),
(455,49,l),
(205,49,l),
(205,231,l)
);
}
);
width = 600;
},
{
layerId = m002;
shapes = (
{
closed = 1;
nodes = (
(205,699,l),
(205,750,l),
(445,750,l),
(445,800,l),
(145,800,l),
(145,679,l)
);
},
{
closed = 1;
nodes = (
(205,351,l),
(205,389,l),
(405,389,l),
(405,439,l),
(205,439,l),
(205,479,l),
(145,459,l),
(145,371,l)
);
},
{
closed = 1;
nodes = (
(145,111,l),
(145,0,l),
(175,0,l),
(175,-1,l),
(455,-1,l),
(455,49,l),
(205,49,l),
(205,91,l)
);
}
);
width = 600;
},
{
associatedMasterId = m002;
layerId = "55246897-B02E-42A7-A350-F884E3938EDC";
name = "9. Mar 24, 17:12";
shapes = (
{
closed = 1;
nodes = (
(145,0,l),
(175,0,l),
(175,-1,l),
(455,-1,l),
(455,49,l),
(205,49,l),
(205,389,l),
(405,389,l),
(405,439,l),
(205,439,l),
(205,750,l),
(445,750,l),
(445,800,l),
(145,800,l)
);
}
);
width = 600;
}
);
}
{
export = 0;
glyphname = F.001;
layers = (
{
layerId = m01;
shapes = (
{
closed = 1;
nodes = (
(200,567,l),
(200,750,l),
(460,750,l),
(460,800,l),
(140,800,l),
(140,548,l)
);
},
{
closed = 1;
nodes = (
(200,333,l),
(200,459,l),
(410,459,l),
(410,509,l),
(200,509,l),
(200,567,l),
(140,548,l),
(140,353,l)
);
},
{
closed = 1;
nodes = (
(140,353,l),
(140,0,l),
(200,0,l),
(200,333,l)
);
}
);
width = 600;
},
{
layerId = m002;
shapes = (
{
closed = 1;
nodes = (
(200,717,l),
(200,750,l),
(460,750,l),
(460,800,l),
(140,800,l),
(140,698,l)
);
},
{
closed = 1;
nodes = (
(200,413,l),
(200,459,l),
(410,459,l),
(410,509,l),
(200,509,l),
(200,537,l),
(140,518,l),
(140,433,l)
);
},
{
closed = 1;
nodes = (
(140,193,l),
(140,0,l),
(200,0,l),
(200,173,l)
);
}
);
width = 600;
},
{
associatedMasterId = m01;
layerId = "D0F0B5E6-2833-4720-ACC1-DEF3DBA66D4B";
name = "9. Mar 24, 17:14";
shapes = (
{
closed = 1;
nodes = (
(140,0,l),
(200,0,l),
(200,459,l),
(410,459,l),
(410,509,l),
(200,509,l),
(200,750,l),
(460,750,l),
(460,800,l),
(140,800,l)
);
}
);
width = 600;
}
);
}
{
export = 0;
glyphname = H.001;
layers = (
{
layerId = m01;
shapes = (
{
closed = 1;
nodes = (
(204,570,l),
(204,800,l),
(144,800,l),
(144,550,l)
);
},
{
closed = 1;
nodes = (
(456,655,l),
(456,800,l),
(396,800,l),
(396,634,l)
);
},
{
closed = 1;
nodes = (
(456,145,l),
(456,655,l),
(396,634,l),
(396,467,l),
(204,467,l),
(204,570,l),
(144,550,l),
(144,250,l),
(204,230,l),
(204,417,l),
(396,417,l),
(396,165,l)
);
},
{
closed = 1;
nodes = (
(144,250,l),
(144,0,l),
(204,0,l),
(204,230,l)
);
},
{
closed = 1;
nodes = (
(396,165,l),
(396,0,l),
(456,0,l),
(456,145,l)
);
}
);
width = 600;
},
{
layerId = m002;
shapes = (
{
closed = 1;
nodes = (
(204,680,l),
(204,800,l),
(144,800,l),
(144,660,l)
);
},
{
closed = 1;
nodes = (
(456,765,l),
(456,800,l),
(396,800,l),
(396,744,l)
);
},
{
closed = 1;
nodes = (
(456,295,l),
(456,585,l),
(396,564,l),
(396,467,l),
(204,467,l),
(204,500,l),
(144,480,l),
(144,400,l),
(204,380,l),
(204,417,l),
(396,417,l),
(396,315,l)
);
},
{
closed = 1;
nodes = (
(144,210,l),
(144,0,l),
(204,0,l),
(204,190,l)
);
},
{
closed = 1;
nodes = (
(396,125,l),
(396,0,l),
(456,0,l),
(456,105,l)
);
}
);
width = 600;
},
{
associatedMasterId = m002;
layerId = "833C6A93-AFDE-447D-98AE-2BE7E298A484";
name = "9. Mar 24, 17:17";
shapes = (
{
closed = 1;
nodes = (
(144,0,l),
(204,0,l),
(204,417,l),
(396,417,l),
(396,0,l),
(456,0,l),
(456,800,l),
(396,800,l),
(396,467,l),
(204,467,l),
(204,800,l),
(144,800,l)
);
}
);
width = 600;
}
);
}
{
export = 0;
glyphname = I.001;
layers = (
{
layerId = m01;
shapes = (
{
closed = 1;
nodes = (
(321,585,l),
(321,757,l),
(450,757,l),
(450,807,l),
(150,807,l),
(150,757,l),
(261,757,l),
(261,564,l)
);
},
{
closed = 1;
nodes = (
(321,213,l),
(321,585,l),
(261,564,l),
(261,233,l)
);
},
{
closed = 1;
nodes = (
(261,233,l),
(261,47,l),
(150,47,l),
(150,-3,l),
(450,-3,l),
(450,47,l),
(321,47,l),
(321,213,l)
);
}
);
width = 600;
},
{
layerId = m002;
shapes = (
{
closed = 1;
nodes = (
(321,695,l),
(321,757,l),
(450,757,l),
(450,807,l),
(150,807,l),
(150,757,l),
(261,757,l),
(261,674,l)
);
},
{
closed = 1;
nodes = (
(321,306,l),
(321,485,l),
(261,464,l),
(261,326,l)
);
},
{
closed = 1;
nodes = (
(261,123,l),
(261,47,l),
(150,47,l),
(150,-3,l),
(450,-3,l),
(450,47,l),
(321,47,l),
(321,103,l)
);
}
);
width = 600;
},
{
associatedMasterId = m01;
layerId = "4C23B8EF-977D-4E2B-8064-394A508133AB";
name = "9. Mar 24, 17:20";
shapes = (
{
closed = 1;
nodes = (
(150,757,l),
(261,757,l),
(261,47,l),
(150,47,l),
(150,-3,l),
(450,-3,l),
(450,47,l),
(321,47,l),
(321,757,l),
(450,757,l),
(450,807,l),
(150,807,l)
);
}
);
width = 600;
}
);
}
{
export = 0;
glyphname = L.001;
layers = (
{
layerId = m01;
shapes = (
{
closed = 1;
nodes = (
(200,633,l),
(200,800,l),
(140,800,l),
(140,653,l)
);
},
{
closed = 1;
nodes = (
(200,168,l),
(200,633,l),
(140,653,l),
(140,149,l)
);
},
{
closed = 1;
nodes = (
(140,149,l),
(140,-3,l),
(460,-3,l),
(460,47,l),
(200,47,l),
(200,168,l)
);
}
);
width = 600;
},
{
associatedMasterId = m01;
layerId = "8336CE71-5F6C-4447-BD78-46428336A016";
name = "8. Aug 23, 19:52";
shapes = (
{
closed = 1;
nodes = (
(140,0,l),
(200,0,l),
(200,800,l),
(140,800,l)
);
},
{
closed = 1;
nodes = (
(140,-3,l),
(460,-3,l),
(460,47,l),
(140,47,l)
);
}
);
width = 600;
},
{
layerId = m002;
shapes = (
{
closed = 1;
nodes = (
(200,713,l),
(200,800,l),
(140,800,l),
(140,733,l)
);
},
{
closed = 1;
nodes = (
(200,338,l),
(200,493,l),
(140,513,l),
(140,319,l)
);
},
{
closed = 1;
nodes = (
(140,89,l),
(140,-3,l),
(460,-3,l),
(460,47,l),
(200,47,l),
(200,108,l)
);
}
);
width = 600;
},
{
associatedMasterId = m002;
layerId = "4286BBF4-E502-464C-8793-468B64FD7EDF";
name = "8. Aug 23, 19:52";
shapes = (
{
closed = 1;
nodes = (
(140,0,l),
(200,0,l),
(200,800,l),
(140,800,l)
);
},
{
closed = 1;
nodes = (
(140,-3,l),
(460,-3,l),
(460,47,l),
(140,47,l)
);
}
);
width = 600;
},
{
associatedMasterId = m01;
layerId = "814FC23B-5959-4959-BED7-B8AB596BEDBC";
name = "9. Mar 24, 17:23";
shapes = (
{
closed = 1;
nodes = (
(140,-3,l),
(460,-3,l),
(460,47,l),
(200,47,l),
(200,800,l),
(140,800,l)
);
}
);
width = 600;
}
);
}
